# xmcd
#
# Track frame offsets:
#	150
#	19830
#	62461
#	115282
#	149434
#	204353
#
# Disc length: 3158 seconds
#
# Revision: 1
# Processed by: cddbd v1.5.2PL0 Copyright (c) Steve Scherf et al.
# Submitted via: audiograbber 1.83.01
#
DISCID=4f0c5406
DTITLE=Grateful Dead - 76-09-23 Cameron Indoor Stadium, Duke University, Durham
DTITLE=NC
DYEAR=1900
DGENRE=
TTITLE0=Help On The Way
TTITLE1=Slipknot!
TTITLE2=Franklin's Tower
TTITLE3=Looks Like Rain
TTITLE4=Eyes Of The World
TTITLE5=Samson and Delilah
EXTD=
EXTT0=
EXTT1=
EXTT2=
EXTT3=
EXTT4=
EXTT5=
PLAYORDER=
